<svg width="28" height="27" viewBox="0 0 28 27" fill="none" xmlns="http://www.w3.org/2000/svg">
<path fill-rule="evenodd" clip-rule="evenodd" d="M13.9988 10.2836L22.9647 1.31768C23.3806 0.901849 24.8895 0.607056 26.1036 1.82116C27.3177 3.03527 27.0229 4.54422 26.6072 4.95996L17.6412 13.926L26.68 22.9648C27.0959 23.3807 27.3906 24.8895 26.1765 26.1037C24.9624 27.3178 23.4535 27.023 23.0377 26.6072L13.9988 17.5683L4.95998 26.6072C4.54414 27.023 3.03524 27.3178 1.82113 26.1037C0.607027 24.8895 0.90172 23.3807 1.3176 22.9648L10.3564 13.926L1.39044 4.95996C0.974702 4.54422 0.679911 3.03527 1.89402 1.82116C3.10812 0.607056 4.61708 0.901849 5.03291 1.31768L13.9988 10.2836Z" fill="url(#paint0_linear)"/>
<defs>
<linearGradient id="paint0_linear" x1="0.955566" y1="0.955643" x2="26.969" y2="27.042" gradientUnits="userSpaceOnUse">
<stop stop-color="#C2D93C"/>
<stop offset="1" stop-color="#2D6B27"/>
</linearGradient>
</defs>
</svg>
