<?xml version="1.0" encoding="utf-8"?>
<!-- Generator: Adobe Illustrator 17.1.0, SVG Export Plug-In . SVG Version: 6.00 Build 0)  -->
<!DOCTYPE svg PUBLIC "-//W3C//DTD SVG 1.1//EN" "http://www.w3.org/Graphics/SVG/1.1/DTD/svg11.dtd">
<svg version="1.1" id="Capa_1" xmlns="http://www.w3.org/2000/svg" xmlns:xlink="http://www.w3.org/1999/xlink" x="0px" y="0px"
	 width="512px" height="512px" viewBox="0 0 512 512" enable-background="new 0 0 512 512" xml:space="preserve">
<g>
	<path fill="#009a7e" d="M510.2,285l-66.8-85.4h24.8c3.3,0,6.3-1.9,7.8-4.8c1.5-2.9,1.2-6.5-0.8-9.1l-48.7-65.5h9.2
		c3.2,0,6.2-1.8,7.7-4.7c1.5-2.9,1.3-6.3-0.5-9L375.1,7.3c-1.6-2.4-4.3-3.8-7.2-3.8c-2.9,0-5.6,1.4-7.2,3.8l-41,59.7l46,67.3
		c5.6,8.1,6.2,18.6,1.6,27.2c-1.3,2.4-2.9,4.5-4.7,6.4l37.1,49.9c6,8.1,6.9,18.6,2.4,27.6c-3.3,6.5-9,11.2-15.7,13.3l31.6,40.4h85.5
		c3.3,0,6.4-1.9,7.8-4.9C512.6,291.2,512.2,287.6,510.2,285z"/>
	<path fill="#009a7e" d="M350.9,242.2h27.4c3.3,0,6.3-1.9,7.8-4.8c1.5-2.9,1.2-6.5-0.8-9.1l-52.3-70.4h10.8c3.2,0,6.2-1.8,7.7-4.7
		c1.5-2.9,1.3-6.3-0.5-9L278,37.5c-1.6-2.4-4.3-3.8-7.2-3.8c-2.9,0-5.6,1.4-7.2,3.8l-50.8,73.8l46.8,68.3c5.6,8.1,6.2,18.6,1.6,27.2
		c-1.4,2.7-3.3,5.1-5.4,7l39.3,52.9c6,8.1,6.9,18.6,2.4,27.6c-3.5,7-9.9,12-17.3,13.8l31.1,39.8h104.5c3.3,0,6.4-1.9,7.8-4.9
		c1.5-3,1.1-6.6-1-9.2L350.9,242.2z"/>
	<path fill="#009a7e" d="M244.5,291.3h29.3c3.3,0,6.3-1.9,7.8-4.8c1.5-2.9,1.2-6.5-0.8-9.1l-55-74h12c3.2,0,6.2-1.8,7.7-4.7
		c1.5-2.9,1.3-6.3-0.5-9L168.2,77.3c-1.6-2.4-4.3-3.8-7.2-3.8c0,0,0,0,0,0c-2.9,0-5.5,1.4-7.2,3.8L76.5,189.6c-1.8,2.7-2,6.1-0.5,9
		c1.5,2.9,4.5,4.7,7.7,4.7H96l-55.2,74c-2,2.6-2.3,6.2-0.8,9.1c1.5,2.9,4.5,4.8,7.8,4.8h29.6L1.9,387.4c-2.1,2.6-2.4,6.2-1,9.2
		c1.5,3,4.5,4.9,7.8,4.9h111.6v90.1h0.1c0.5,9.4,18.3,16.9,40.4,16.9s39.9-7.5,40.4-16.9l0.1-90.1h111.6c3.3,0,6.4-1.9,7.8-4.9
		c1.5-3,1.1-6.6-1-9.2L244.5,291.3z"/>
</g>
</svg>
